<svg width="39" height="38" viewBox="0 0 39 38" fill="none" xmlns="http://www.w3.org/2000/svg">
<path d="M36.0543 37.2825C37.1905 37.2825 38.1118 36.3613 38.1118 35.225V2.06009C38.1118 0.923637 37.1905 0.00256348 36.0543 0.00256348H2.88956C1.75296 0.00256348 0.832031 0.923637 0.832031 2.06009V35.225C0.832031 36.3613 1.75296 37.2825 2.88956 37.2825H36.0543Z" fill="#395185"/>
<path d="M26.554 37.2826V22.8458H31.4L32.1255 17.2196H26.554V13.6274C26.554 11.9984 27.0065 10.8883 29.3424 10.8883L32.3218 10.887V5.85496C31.8063 5.78638 30.0378 5.63318 27.9804 5.63318C23.6848 5.63318 20.7441 8.25514 20.7441 13.0704V17.2196H15.8857V22.8458H20.7441V37.2826H26.554Z" fill="white"/>
</svg>
