<svg width="47" height="38" viewBox="0 0 47 38" fill="none" xmlns="http://www.w3.org/2000/svg">
<path d="M46.6588 4.39539C44.9138 5.1529 43.063 5.65012 41.1677 5.87053C43.1418 4.71111 44.6576 2.87513 45.3713 0.687569C43.4947 1.77882 41.4415 2.54768 39.3004 2.96092C37.5564 1.14028 35.0719 0.00244141 32.3219 0.00244141C27.042 0.00244141 22.7612 4.19704 22.7612 9.37055C22.7612 10.1049 22.8458 10.8198 23.0087 11.5057C15.0631 11.1149 8.01854 7.38527 3.30304 1.71731C2.48027 3.10095 2.00881 4.7104 2.00881 6.42705C2.00881 9.67735 3.69677 12.5447 6.26195 14.2248C4.74372 14.1782 3.2589 13.7764 1.93145 13.0529C1.9309 13.0921 1.9309 13.1314 1.9309 13.1708C1.9309 17.7098 5.22638 21.4963 9.59983 22.3569C8.19199 22.7321 6.71525 22.787 5.28244 22.5175C6.49895 26.2394 10.0298 28.9478 14.2132 29.0236C10.9412 31.5362 6.81878 33.034 2.33974 33.034C1.56793 33.034 0.807044 32.9895 0.059082 32.903C4.29001 35.5611 9.31532 37.1121 14.7143 37.1121C32.2997 37.1121 41.9158 22.8368 41.9158 10.457C41.9158 10.0507 41.9067 9.64667 41.8882 9.24498C43.7599 7.91911 45.3754 6.27689 46.6588 4.39539Z" fill="#55ACEE"/>
</svg>
