<svg width="38" height="38" viewBox="0 0 38 38" fill="none" xmlns="http://www.w3.org/2000/svg">
<path d="M10.1391 31.9312L10.7485 32.2325C13.2882 33.7385 16.1324 34.4413 18.9767 34.4413C27.9159 34.4413 35.2297 27.2122 35.2297 18.3766C35.2297 14.1597 33.5028 10.0431 30.4554 7.03088C27.4079 4.0187 23.3446 2.31189 18.9767 2.31189C10.0376 2.31189 2.72362 9.541 2.82527 18.4771C2.82527 21.4891 3.73949 24.401 5.26316 26.9109L5.66945 27.5135L4.04429 33.4374L10.1391 31.9312Z" fill="#00E676"/>
<path d="M32.1817 5.4244C28.7279 1.91031 23.9536 0.00256348 19.0777 0.00256348C8.71651 0.00256348 0.386802 8.33611 0.488302 18.4769C0.488302 21.6899 1.40253 24.8026 2.92634 27.6138L0.285156 37.1522L10.1385 34.6421C12.8812 36.1483 15.9285 36.8511 18.9762 36.8511C29.2358 36.8511 37.5655 28.5174 37.5655 18.3768C37.5655 13.4568 35.6354 8.83816 32.1818 5.4244H32.1817ZM19.0777 33.7386C16.335 33.7386 13.5923 33.0359 11.2559 31.6302L10.6465 31.329L4.7548 32.835L6.27847 27.112L5.87218 26.5095C1.40253 19.3809 3.53578 9.9426 10.8496 5.52472C18.1634 1.107 27.6105 3.21554 32.0802 10.4446C36.5497 17.6738 34.4164 27.0114 27.1027 31.4293C24.7662 32.9353 21.922 33.7385 19.0777 33.7385V33.7386ZM28.0168 22.5938L26.8994 22.0918C26.8994 22.0918 25.2743 21.3889 24.2584 20.8869C24.1568 20.8869 24.0553 20.7864 23.9536 20.7864C23.6488 20.7864 23.4457 20.8869 23.2425 20.9873C23.2425 20.9873 23.141 21.0877 21.7189 22.6942C21.6172 22.895 21.4141 22.9954 21.2109 22.9954H21.1093C21.0078 22.9954 20.8046 22.895 20.703 22.7946L20.195 22.5938C19.0777 22.0918 18.0619 21.4893 17.2492 20.6861C17.0461 20.4853 16.7413 20.2845 16.5381 20.0837C15.827 19.3809 15.116 18.5775 14.6082 17.6739L14.5065 17.4731C14.405 17.3726 14.405 17.2723 14.3034 17.0715C14.3034 16.8707 14.3034 16.6699 14.405 16.5695C14.405 16.5695 14.8113 16.0674 15.116 15.7663C15.3193 15.5654 15.4208 15.2643 15.6239 15.0635C15.827 14.7622 15.9287 14.3606 15.827 14.0594C15.7255 13.5573 14.5065 10.8464 14.2019 10.244C13.9986 9.94274 13.7956 9.84242 13.4908 9.74195H12.3734C12.1701 9.74195 11.9671 9.84242 11.7638 9.84242L11.6622 9.94274C11.459 10.0432 11.2559 10.244 11.0528 10.3443C10.8496 10.5453 10.748 10.7459 10.5448 10.9468C9.83374 11.8505 9.42744 12.9549 9.42744 14.0594C9.42744 14.8625 9.63059 15.6658 9.93538 16.3687L10.037 16.6699C10.9513 18.5775 12.1701 20.2845 13.7956 21.7905L14.2019 22.1921C14.5065 22.4934 14.8113 22.6942 15.0145 22.9953C17.1477 24.8027 19.5856 26.1079 22.3283 26.8108C22.6331 26.9111 23.0394 26.9111 23.3442 27.0116H24.3599C24.8678 27.0116 25.4773 26.8108 25.8837 26.61C26.1884 26.4092 26.3915 26.4092 26.5946 26.2084L26.7979 26.0075C27.0011 25.8067 27.2042 25.7063 27.4074 25.5055C27.6105 25.3048 27.8137 25.104 27.9153 24.903C28.1185 24.5014 28.22 23.9994 28.3216 23.4975V22.7946C28.3216 22.7946 28.22 22.6942 28.0168 22.5938Z" fill="white"/>
</svg>
